/* XPM */
static const char * const Document_xpm[] = {
  "13 11 3 1",
  "   c None",
  "x  c #d8d8f8",
  "@  c #202060",
  " @@@@@@@@@   ",
  " @xxxxxxx@   ",
  " @xxxxxxx@   ",
  " @xxxxxxx@   ",
  " @xxxxxxx@   ",
  " @xxxxxxx@   ",
  " @xxxxxxx@   ",
  " @xxxxxxx@   ",
  " @xxxxxxx@   ",
  " @xxxxxxx@   ",
  " @@@@@@@@@   "
};
